<?xml version="1.0" standalone="no"?><!DOCTYPE svg PUBLIC "-//W3C//DTD SVG 1.1//EN" "http://www.w3.org/Graphics/SVG/1.1/DTD/svg11.dtd"><svg t="1565164281919" class="icon" viewBox="0 0 1024 1024" version="1.1" xmlns="http://www.w3.org/2000/svg" p-id="4798" xmlns:xlink="http://www.w3.org/1999/xlink" width="128" height="128"><defs><style type="text/css"></style></defs><path d="M512 954.266c-251.72 0-455.793-204.073-455.793-455.793S260.28 42.691 512 42.691s455.793 204.073 455.793 455.792S763.72 954.266 512 954.266z m96.328-243.088c114.247 0 206.93-101.888 206.93-227.553 0-125.645-92.672-227.533-206.93-227.533H470.313v455.086h138.015z m-372.624 0c91.464 0 165.602-71.926 165.602-160.614V256.092h-55.184v294.441c0 59.157-49.408 107.11-110.387 107.11h-27.587v53.545h27.587-0.03z m0 0" p-id="4799"></path><path d="M608.328 309.627h-82.832v347.986h82.801c83.835 0 151.777-77.906 151.777-173.988s-67.942-173.988-151.777-173.988h0.03z m0 0" p-id="4800"></path></svg>