<?xml version="1.0" standalone="no"?><!DOCTYPE svg PUBLIC "-//W3C//DTD SVG 1.1//EN" "http://www.w3.org/Graphics/SVG/1.1/DTD/svg11.dtd"><svg t="1564991004520" class="icon" viewBox="0 0 1024 1024" version="1.1" xmlns="http://www.w3.org/2000/svg" p-id="2001" width="128" height="128" xmlns:xlink="http://www.w3.org/1999/xlink"><defs><style type="text/css"></style></defs><path d="M820.571429 141.714286 198.857143 141.714286 198.857143 68.571429c0-27.428571 18.285714-36.571429 27.428571-36.571429l566.857143 0c18.285714 0 27.428571 13.714286 27.428571 36.571429L820.571429 141.714286 820.571429 141.714286zM820.571429 763.428571 198.857143 763.428571 198.857143 192l626.285714 0L825.142857 763.428571 820.571429 763.428571zM820.571429 950.857143c0 13.714286-9.142857 36.571429-32 36.571429L221.714286 987.428571c-13.714286 0-27.428571-13.714286-27.428571-36.571429l0-137.142857 626.285714 0L820.571429 950.857143 820.571429 950.857143zM793.142857 0 226.285714 0C189.714286 0 157.714286 32 157.714286 68.571429l0 882.285714c0 36.571429 32 68.571429 68.571429 68.571429l571.428571 0c36.571429 0 68.571429-32 68.571429-68.571429L866.285714 68.571429C861.714286 32 829.714286 0 793.142857 0L793.142857 0zM436.571429 864l146.285714 0L582.857143 914.285714 436.571429 914.285714 436.571429 864 436.571429 864zM436.571429 864" p-id="2002" fill="#889aa4"></path></svg>